<svg xmlns="http://www.w3.org/2000/svg" xmlns:xlink="http://www.w3.org/1999/xlink" width="500" zoomAndPan="magnify" viewBox="0 0 375 374.999991" height="500" preserveAspectRatio="xMidYMid meet" version="1.0"><defs><g/><clipPath id="5a5424d064"><path d="M 63.320312 152.503906 L 311.570312 152.503906 L 311.570312 222.253906 L 63.320312 222.253906 Z M 63.320312 152.503906 " clip-rule="nonzero"/></clipPath></defs><rect x="-37.5" width="450" fill="#ffffff" y="-37.499999" height="449.999989" fill-opacity="1"/><rect x="-37.5" width="450" fill="#ffffff" y="-37.499999" height="449.999989" fill-opacity="1"/><g clip-path="url(#5a5424d064)"><path fill="#333333" d="M 280.679688 218.292969 C 290.28125 218.054688 300.121094 216.679688 309.90625 214.164062 C 310.734375 213.945312 311.414062 213.355469 311.746094 212.566406 C 312.078125 211.777344 312.003906 210.878906 311.582031 210.144531 L 284.753906 164.742188 C 284.21875 163.824219 283.1875 163.308594 282.136719 163.402344 L 274.691406 164.078125 L 274.691406 164.171875 L 274.359375 163.585938 C 274.066406 163.089844 273.457031 162.886719 272.921875 163.144531 C 272.316406 163.4375 271.6875 163.710938 271.042969 163.953125 L 267.339844 157.507812 C 267.042969 157.015625 266.4375 156.8125 265.902344 157.070312 C 258.957031 160.410156 250.441406 160.867188 239.128906 158.5 C 236.179688 157.875 233.195312 157.125 230.300781 156.390625 C 224.222656 154.847656 217.9375 153.269531 211.5625 152.828125 C 207.398438 152.554688 202.828125 153.691406 197.980469 156.207031 C 193.503906 158.539062 189.78125 161.527344 187.273438 163.859375 C 184.769531 161.527344 181.046875 158.539062 176.570312 156.207031 C 171.742188 153.691406 167.171875 152.554688 162.988281 152.828125 C 156.59375 153.25 150.328125 154.847656 144.25 156.390625 C 141.355469 157.125 138.371094 157.875 135.421875 158.5 C 124.109375 160.867188 115.59375 160.410156 108.648438 157.070312 C 108.132812 156.8125 107.507812 157.015625 107.210938 157.507812 L 103.5625 163.933594 C 102.917969 163.675781 102.292969 163.417969 101.683594 163.125 C 101.167969 162.867188 100.539062 163.070312 100.246094 163.566406 L 99.933594 164.117188 L 99.933594 164.0625 L 93.042969 163.382812 C 91.972656 163.273438 90.941406 163.804688 90.40625 164.722656 L 63.578125 210.128906 C 63.152344 210.84375 63.078125 211.722656 63.394531 212.511719 C 63.707031 213.300781 64.351562 213.890625 65.160156 214.128906 C 78.59375 218.164062 92.027344 219.925781 105.09375 219.378906 C 116.480469 218.898438 126.597656 216.753906 135.515625 214.84375 C 150.347656 211.6875 162.050781 209.210938 172.089844 215.761719 C 174.339844 217.230469 176.402344 219.066406 178.171875 221.210938 C 178.6875 221.835938 179.460938 222.203125 180.292969 222.203125 L 193.191406 222.203125 C 193.984375 222.203125 194.71875 221.875 195.253906 221.285156 C 197.667969 218.570312 200.433594 216.292969 203.507812 214.550781 C 214.398438 208.308594 226.046875 210.695312 240.785156 213.722656 C 252.0625 216.035156 264.90625 218.660156 280.679688 218.292969 Z M 272.960938 165.53125 L 275.1875 169.421875 L 275.1875 169.511719 L 275.226562 169.511719 L 296.75 206.96875 C 287.757812 209.960938 276.847656 210.292969 262.546875 208 C 258.328125 207.320312 253.445312 206.308594 248.304688 205.246094 C 238.777344 203.261719 228.9375 201.207031 220.996094 200.804688 C 214.511719 200.472656 207.636719 201.683594 201.648438 204.234375 C 197.355469 206.054688 193.613281 208.511719 190.574219 211.46875 C 197.261719 198.214844 209.957031 195.792969 220.074219 196.308594 C 227.886719 196.710938 235.128906 198.199219 242.8125 199.777344 C 246.867188 200.601562 251.050781 201.464844 255.289062 202.144531 C 256.171875 202.289062 257.074219 202.4375 257.980469 202.585938 C 269.402344 204.4375 281.234375 206.363281 291.753906 202.511719 C 292.050781 202.402344 292.289062 202.160156 292.398438 201.851562 C 292.511719 201.554688 292.472656 201.207031 292.324219 200.933594 L 272.167969 165.859375 C 272.445312 165.75 272.703125 165.640625 272.960938 165.53125 Z M 211.453125 155.011719 C 217.640625 155.4375 223.816406 156.996094 229.804688 158.5 C 232.714844 159.234375 235.738281 160.003906 238.722656 160.628906 C 250.035156 162.996094 258.734375 162.628906 265.976562 159.453125 L 289.78125 200.878906 C 280.089844 203.960938 269.054688 202.160156 258.347656 200.417969 C 257.445312 200.273438 256.542969 200.125 255.65625 199.976562 C 251.457031 199.316406 247.308594 198.453125 243.273438 197.628906 C 235.867188 196.105469 228.199219 194.527344 220.203125 194.105469 C 212.648438 193.71875 206.050781 195.003906 200.617188 197.921875 C 195.179688 200.839844 191.015625 205.355469 188.195312 211.375 L 188.4375 165.824219 C 191.699219 162.738281 201.59375 154.351562 211.453125 155.011719 Z M 108.667969 159.453125 C 115.890625 162.628906 124.585938 162.996094 135.921875 160.628906 C 138.921875 160.003906 141.925781 159.234375 144.839844 158.5 C 150.808594 156.996094 157 155.417969 163.191406 155.011719 C 173.050781 154.351562 182.925781 162.722656 186.226562 165.824219 L 185.984375 210.988281 C 183.238281 204.621094 179.148438 200.015625 173.785156 197.28125 C 168.570312 194.617188 162.75 194.03125 157.996094 194.03125 C 156.722656 194.03125 155.527344 194.070312 154.4375 194.125 C 146.441406 194.527344 138.777344 196.105469 131.367188 197.648438 C 127.351562 198.472656 123.1875 199.335938 119.003906 199.996094 C 118.101562 200.144531 117.21875 200.289062 116.3125 200.4375 C 105.625 202.179688 94.570312 203.980469 84.878906 200.894531 Z M 101.664062 165.53125 C 101.921875 165.640625 102.199219 165.75 102.457031 165.859375 L 82.296875 200.949219 C 82.132812 201.226562 82.113281 201.554688 82.226562 201.867188 C 82.335938 202.179688 82.574219 202.402344 82.871094 202.527344 C 93.390625 206.402344 105.222656 204.472656 116.644531 202.601562 C 117.546875 202.457031 118.453125 202.308594 119.335938 202.160156 C 123.574219 201.484375 127.757812 200.621094 131.8125 199.792969 C 139.476562 198.214844 146.71875 196.710938 154.550781 196.324219 C 165.144531 195.773438 177.65625 197.242188 183.976562 211.90625 C 180.898438 208.75 177.085938 206.144531 172.699219 204.253906 C 166.839844 201.703125 160.058594 200.492188 153.609375 200.824219 C 145.648438 201.226562 135.808594 203.28125 126.300781 205.265625 C 121.140625 206.328125 116.277344 207.355469 112.058594 208.015625 C 97.757812 210.292969 86.832031 209.980469 77.859375 206.988281 L 99.378906 169.53125 L 99.398438 169.53125 L 99.398438 169.476562 Z M 181.542969 216.753906 C 179.609375 214.605469 177.453125 212.734375 175.09375 211.191406 C 163.136719 203.390625 149.8125 206.21875 134.371094 209.503906 C 125.65625 211.355469 115.796875 213.449219 104.871094 213.90625 C 93.519531 214.386719 81.855469 213.027344 70.117188 209.851562 L 94.277344 168.980469 L 97.003906 169.253906 L 75.316406 207.007812 C 75.148438 207.28125 75.128906 207.613281 75.242188 207.925781 C 75.351562 208.21875 75.589844 208.457031 75.886719 208.585938 C 85.46875 212.109375 97.078125 212.605469 112.425781 210.144531 C 116.699219 209.464844 121.601562 208.4375 126.78125 207.375 C 136.214844 205.410156 145.980469 203.375 153.757812 202.988281 C 163.578125 202.492188 177.453125 205.832031 185.230469 216.753906 Z M 200.746094 209.816406 C 197.519531 211.667969 194.574219 214 191.972656 216.753906 L 188.914062 216.753906 C 196.269531 206.511719 210.085938 202.4375 220.902344 202.988281 C 228.679688 203.390625 238.445312 205.410156 247.878906 207.375 C 253.058594 208.457031 257.941406 209.464844 262.234375 210.144531 C 277.585938 212.605469 289.195312 212.089844 298.773438 208.585938 C 299.070312 208.476562 299.308594 208.238281 299.421875 207.925781 C 299.53125 207.632812 299.492188 207.28125 299.347656 207.007812 L 277.675781 169.273438 L 280.9375 168.980469 L 305.023438 209.722656 C 296.820312 211.59375 288.621094 212.640625 280.589844 212.824219 C 265.441406 213.191406 252.929688 210.621094 241.890625 208.367188 C 226.597656 205.246094 213.421875 202.527344 200.746094 209.816406 Z M 200.746094 209.816406 " fill-opacity="1" fill-rule="nonzero"/><path fill="#333333" d="M 280.679688 218.292969 C 290.28125 218.054688 300.121094 216.679688 309.90625 214.164062 C 310.734375 213.945312 311.414062 213.355469 311.746094 212.566406 C 312.078125 211.777344 312.003906 210.878906 311.582031 210.144531 L 284.753906 164.742188 C 284.21875 163.824219 283.1875 163.308594 282.136719 163.402344 L 274.691406 164.078125 L 274.691406 164.171875 L 274.359375 163.585938 C 274.066406 163.089844 273.457031 162.886719 272.921875 163.144531 C 272.316406 163.4375 271.6875 163.710938 271.042969 163.953125 L 267.339844 157.507812 C 267.042969 157.015625 266.4375 156.8125 265.902344 157.070312 C 258.957031 160.410156 250.441406 160.867188 239.128906 158.5 C 236.179688 157.875 233.195312 157.125 230.300781 156.390625 C 224.222656 154.847656 217.9375 153.269531 211.5625 152.828125 C 207.398438 152.554688 202.828125 153.691406 197.980469 156.207031 C 193.503906 158.539062 189.78125 161.527344 187.273438 163.859375 C 184.769531 161.527344 181.046875 158.539062 176.570312 156.207031 C 171.742188 153.691406 167.171875 152.554688 162.988281 152.828125 C 156.59375 153.25 150.328125 154.847656 144.25 156.390625 C 141.355469 157.125 138.371094 157.875 135.421875 158.5 C 124.109375 160.867188 115.59375 160.410156 108.648438 157.070312 C 108.132812 156.8125 107.507812 157.015625 107.210938 157.507812 L 103.5625 163.933594 C 102.917969 163.675781 102.292969 163.417969 101.683594 163.125 C 101.167969 162.867188 100.539062 163.070312 100.246094 163.566406 L 99.933594 164.117188 L 99.933594 164.0625 L 93.042969 163.382812 C 91.972656 163.273438 90.941406 163.804688 90.40625 164.722656 L 63.578125 210.128906 C 63.152344 210.84375 63.078125 211.722656 63.394531 212.511719 C 63.707031 213.300781 64.351562 213.890625 65.160156 214.128906 C 78.59375 218.164062 92.027344 219.925781 105.09375 219.378906 C 116.480469 218.898438 126.597656 216.753906 135.515625 214.84375 C 150.347656 211.6875 162.050781 209.210938 172.089844 215.761719 C 174.339844 217.230469 176.402344 219.066406 178.171875 221.210938 C 178.6875 221.835938 179.460938 222.203125 180.292969 222.203125 L 193.191406 222.203125 C 193.984375 222.203125 194.71875 221.875 195.253906 221.285156 C 197.667969 218.570312 200.433594 216.292969 203.507812 214.550781 C 214.398438 208.308594 226.046875 210.695312 240.785156 213.722656 C 252.0625 216.035156 264.90625 218.660156 280.679688 218.292969 Z M 272.960938 165.53125 L 275.1875 169.421875 L 275.1875 169.511719 L 275.226562 169.511719 L 296.75 206.96875 C 287.757812 209.960938 276.847656 210.292969 262.546875 208 C 258.328125 207.320312 253.445312 206.308594 248.304688 205.246094 C 238.777344 203.261719 228.9375 201.207031 220.996094 200.804688 C 214.511719 200.472656 207.636719 201.683594 201.648438 204.234375 C 197.355469 206.054688 193.613281 208.511719 190.574219 211.46875 C 197.261719 198.214844 209.957031 195.792969 220.074219 196.308594 C 227.886719 196.710938 235.128906 198.199219 242.8125 199.777344 C 246.867188 200.601562 251.050781 201.464844 255.289062 202.144531 C 256.171875 202.289062 257.074219 202.4375 257.980469 202.585938 C 269.402344 204.4375 281.234375 206.363281 291.753906 202.511719 C 292.050781 202.402344 292.289062 202.160156 292.398438 201.851562 C 292.511719 201.554688 292.472656 201.207031 292.324219 200.933594 L 272.167969 165.859375 C 272.445312 165.75 272.703125 165.640625 272.960938 165.53125 Z M 211.453125 155.011719 C 217.640625 155.4375 223.816406 156.996094 229.804688 158.5 C 232.714844 159.234375 235.738281 160.003906 238.722656 160.628906 C 250.035156 162.996094 258.734375 162.628906 265.976562 159.453125 L 289.78125 200.878906 C 280.089844 203.960938 269.054688 202.160156 258.347656 200.417969 C 257.445312 200.273438 256.542969 200.125 255.65625 199.976562 C 251.457031 199.316406 247.308594 198.453125 243.273438 197.628906 C 235.867188 196.105469 228.199219 194.527344 220.203125 194.105469 C 212.648438 193.71875 206.050781 195.003906 200.617188 197.921875 C 195.179688 200.839844 191.015625 205.355469 188.195312 211.375 L 188.4375 165.824219 C 191.699219 162.738281 201.59375 154.351562 211.453125 155.011719 Z M 108.667969 159.453125 C 115.890625 162.628906 124.585938 162.996094 135.921875 160.628906 C 138.921875 160.003906 141.925781 159.234375 144.839844 158.5 C 150.808594 156.996094 157 155.417969 163.191406 155.011719 C 173.050781 154.351562 182.925781 162.722656 186.226562 165.824219 L 185.984375 210.988281 C 183.238281 204.621094 179.148438 200.015625 173.785156 197.28125 C 168.570312 194.617188 162.75 194.03125 157.996094 194.03125 C 156.722656 194.03125 155.527344 194.070312 154.4375 194.125 C 146.441406 194.527344 138.777344 196.105469 131.367188 197.648438 C 127.351562 198.472656 123.1875 199.335938 119.003906 199.996094 C 118.101562 200.144531 117.21875 200.289062 116.3125 200.4375 C 105.625 202.179688 94.570312 203.980469 84.878906 200.894531 Z M 101.664062 165.53125 C 101.921875 165.640625 102.199219 165.75 102.457031 165.859375 L 82.296875 200.949219 C 82.132812 201.226562 82.113281 201.554688 82.226562 201.867188 C 82.335938 202.179688 82.574219 202.402344 82.871094 202.527344 C 93.390625 206.402344 105.222656 204.472656 116.644531 202.601562 C 117.546875 202.457031 118.453125 202.308594 119.335938 202.160156 C 123.574219 201.484375 127.757812 200.621094 131.8125 199.792969 C 139.476562 198.214844 146.71875 196.710938 154.550781 196.324219 C 165.144531 195.773438 177.65625 197.242188 183.976562 211.90625 C 180.898438 208.75 177.085938 206.144531 172.699219 204.253906 C 166.839844 201.703125 160.058594 200.492188 153.609375 200.824219 C 145.648438 201.226562 135.808594 203.28125 126.300781 205.265625 C 121.140625 206.328125 116.277344 207.355469 112.058594 208.015625 C 97.757812 210.292969 86.832031 209.980469 77.859375 206.988281 L 99.378906 169.53125 L 99.398438 169.53125 L 99.398438 169.476562 Z M 181.542969 216.753906 C 179.609375 214.605469 177.453125 212.734375 175.09375 211.191406 C 163.136719 203.390625 149.8125 206.21875 134.371094 209.503906 C 125.65625 211.355469 115.796875 213.449219 104.871094 213.90625 C 93.519531 214.386719 81.855469 213.027344 70.117188 209.851562 L 94.277344 168.980469 L 97.003906 169.253906 L 75.316406 207.007812 C 75.148438 207.28125 75.128906 207.613281 75.242188 207.925781 C 75.351562 208.21875 75.589844 208.457031 75.886719 208.585938 C 85.46875 212.109375 97.078125 212.605469 112.425781 210.144531 C 116.699219 209.464844 121.601562 208.4375 126.78125 207.375 C 136.214844 205.410156 145.980469 203.375 153.757812 202.988281 C 163.578125 202.492188 177.453125 205.832031 185.230469 216.753906 Z M 200.746094 209.816406 C 197.519531 211.667969 194.574219 214 191.972656 216.753906 L 188.914062 216.753906 C 196.269531 206.511719 210.085938 202.4375 220.902344 202.988281 C 228.679688 203.390625 238.445312 205.410156 247.878906 207.375 C 253.058594 208.457031 257.941406 209.464844 262.234375 210.144531 C 277.585938 212.605469 289.195312 212.089844 298.773438 208.585938 C 299.070312 208.476562 299.308594 208.238281 299.421875 207.925781 C 299.53125 207.632812 299.492188 207.28125 299.347656 207.007812 L 277.675781 169.273438 L 280.9375 168.980469 L 305.023438 209.722656 C 296.820312 211.59375 288.621094 212.640625 280.589844 212.824219 C 265.441406 213.191406 252.929688 210.621094 241.890625 208.367188 C 226.597656 205.246094 213.421875 202.527344 200.746094 209.816406 Z M 200.746094 209.816406 " fill-opacity="1" fill-rule="nonzero"/></g><g fill="#ffffff" fill-opacity="1"><g transform="translate(111.296643, 251.205951)"><g><path d="M 0.765625 0 L 0.765625 -11.515625 L 2.46875 -11.515625 C 3.125 -11.515625 3.601562 -11.367188 3.90625 -11.078125 C 4.207031 -10.796875 4.363281 -10.320312 4.375 -9.65625 C 4.375 -9.175781 4.375 -8.753906 4.375 -8.390625 C 4.375 -8.035156 4.367188 -7.691406 4.359375 -7.359375 C 4.335938 -6.953125 4.257812 -6.632812 4.125 -6.40625 C 3.988281 -6.1875 3.78125 -6.023438 3.5 -5.921875 L 3.5 -5.65625 C 4.0625 -5.46875 4.351562 -4.984375 4.375 -4.203125 C 4.382812 -3.773438 4.390625 -3.378906 4.390625 -3.015625 C 4.390625 -2.660156 4.382812 -2.273438 4.375 -1.859375 C 4.351562 -1.191406 4.195312 -0.710938 3.90625 -0.421875 C 3.613281 -0.140625 3.132812 0 2.46875 0 Z M 1.71875 -6.21875 L 2.453125 -6.21875 C 3.066406 -6.21875 3.382812 -6.601562 3.40625 -7.375 C 3.4375 -8.144531 3.4375 -8.921875 3.40625 -9.703125 C 3.382812 -10.335938 3.070312 -10.65625 2.46875 -10.65625 L 1.71875 -10.65625 Z M 1.71875 -0.859375 L 2.46875 -0.859375 C 3.082031 -0.859375 3.398438 -1.195312 3.421875 -1.875 C 3.453125 -2.632812 3.453125 -3.398438 3.421875 -4.171875 C 3.410156 -4.609375 3.328125 -4.914062 3.171875 -5.09375 C 3.015625 -5.28125 2.765625 -5.375 2.421875 -5.375 L 1.71875 -5.375 Z M 1.71875 -0.859375 "/></g></g></g><g fill="#ffffff" fill-opacity="1"><g transform="translate(127.765441, 251.205951)"><g><path d="M 2.6875 0.09375 C 2.03125 0.09375 1.550781 -0.046875 1.25 -0.328125 C 0.957031 -0.617188 0.8125 -1.097656 0.8125 -1.765625 C 0.78125 -3.140625 0.765625 -4.46875 0.765625 -5.75 C 0.765625 -7.03125 0.78125 -8.363281 0.8125 -9.75 C 0.8125 -10.414062 0.957031 -10.890625 1.25 -11.171875 C 1.550781 -11.460938 2.03125 -11.609375 2.6875 -11.609375 C 3.363281 -11.609375 3.84375 -11.460938 4.125 -11.171875 C 4.414062 -10.890625 4.570312 -10.414062 4.59375 -9.75 C 4.613281 -8.363281 4.625 -7.03125 4.625 -5.75 C 4.625 -4.46875 4.613281 -3.140625 4.59375 -1.765625 C 4.570312 -1.097656 4.414062 -0.617188 4.125 -0.328125 C 3.84375 -0.046875 3.363281 0.09375 2.6875 0.09375 Z M 2.6875 -0.71875 C 3.019531 -0.71875 3.257812 -0.785156 3.40625 -0.921875 C 3.550781 -1.054688 3.625 -1.289062 3.625 -1.625 C 3.675781 -3.03125 3.695312 -4.414062 3.6875 -5.78125 C 3.6875 -7.144531 3.664062 -8.515625 3.625 -9.890625 C 3.625 -10.222656 3.550781 -10.457031 3.40625 -10.59375 C 3.257812 -10.726562 3.019531 -10.796875 2.6875 -10.796875 C 2.363281 -10.796875 2.128906 -10.726562 1.984375 -10.59375 C 1.835938 -10.457031 1.757812 -10.222656 1.75 -9.890625 C 1.71875 -8.515625 1.703125 -7.144531 1.703125 -5.78125 C 1.703125 -4.414062 1.71875 -3.03125 1.75 -1.625 C 1.757812 -1.289062 1.835938 -1.054688 1.984375 -0.921875 C 2.128906 -0.785156 2.363281 -0.71875 2.6875 -0.71875 Z M 2.6875 -0.71875 "/></g></g></g><g fill="#ffffff" fill-opacity="1"><g transform="translate(144.665956, 251.205951)"><g><path d="M 2.6875 0.09375 C 2.03125 0.09375 1.550781 -0.046875 1.25 -0.328125 C 0.957031 -0.617188 0.8125 -1.097656 0.8125 -1.765625 C 0.78125 -3.140625 0.765625 -4.46875 0.765625 -5.75 C 0.765625 -7.03125 0.78125 -8.363281 0.8125 -9.75 C 0.8125 -10.414062 0.957031 -10.890625 1.25 -11.171875 C 1.550781 -11.460938 2.03125 -11.609375 2.6875 -11.609375 C 3.363281 -11.609375 3.84375 -11.460938 4.125 -11.171875 C 4.414062 -10.890625 4.570312 -10.414062 4.59375 -9.75 C 4.613281 -8.363281 4.625 -7.03125 4.625 -5.75 C 4.625 -4.46875 4.613281 -3.140625 4.59375 -1.765625 C 4.570312 -1.097656 4.414062 -0.617188 4.125 -0.328125 C 3.84375 -0.046875 3.363281 0.09375 2.6875 0.09375 Z M 2.6875 -0.71875 C 3.019531 -0.71875 3.257812 -0.785156 3.40625 -0.921875 C 3.550781 -1.054688 3.625 -1.289062 3.625 -1.625 C 3.675781 -3.03125 3.695312 -4.414062 3.6875 -5.78125 C 3.6875 -7.144531 3.664062 -8.515625 3.625 -9.890625 C 3.625 -10.222656 3.550781 -10.457031 3.40625 -10.59375 C 3.257812 -10.726562 3.019531 -10.796875 2.6875 -10.796875 C 2.363281 -10.796875 2.128906 -10.726562 1.984375 -10.59375 C 1.835938 -10.457031 1.757812 -10.222656 1.75 -9.890625 C 1.71875 -8.515625 1.703125 -7.144531 1.703125 -5.78125 C 1.703125 -4.414062 1.71875 -3.03125 1.75 -1.625 C 1.757812 -1.289062 1.835938 -1.054688 1.984375 -0.921875 C 2.128906 -0.785156 2.363281 -0.71875 2.6875 -0.71875 Z M 2.6875 -0.71875 "/></g></g></g><g fill="#ffffff" fill-opacity="1"><g transform="translate(161.566472, 251.205951)"><g><path d="M 0.765625 0 L 0.765625 -11.515625 L 1.765625 -11.515625 L 1.75 -9.078125 L 1.609375 -5.84375 L 1.859375 -5.84375 L 2.78125 -9.046875 L 3.5625 -11.515625 L 4.625 -11.515625 L 2.90625 -6.359375 L 4.8125 0 L 3.8125 0 L 2.296875 -5.203125 L 1.734375 -3.71875 L 1.734375 0 Z M 0.765625 0 "/></g></g></g><g fill="#ffffff" fill-opacity="1"><g transform="translate(178.265524, 251.205951)"><g/></g></g><g fill="#ffffff" fill-opacity="1"><g transform="translate(192.762813, 251.205951)"><g><path d="M 2.6875 0.09375 C 2.03125 0.09375 1.554688 -0.0507812 1.265625 -0.34375 C 0.972656 -0.632812 0.816406 -1.117188 0.796875 -1.796875 C 0.785156 -2.234375 0.78125 -2.625 0.78125 -2.96875 C 0.78125 -3.3125 0.789062 -3.707031 0.8125 -4.15625 L 1.734375 -4.15625 C 1.710938 -3.738281 1.703125 -3.316406 1.703125 -2.890625 C 1.703125 -2.472656 1.710938 -2.0625 1.734375 -1.65625 C 1.742188 -1.332031 1.820312 -1.09375 1.96875 -0.9375 C 2.113281 -0.789062 2.351562 -0.71875 2.6875 -0.71875 C 3.007812 -0.71875 3.238281 -0.789062 3.375 -0.9375 C 3.507812 -1.09375 3.585938 -1.332031 3.609375 -1.65625 C 3.628906 -1.925781 3.640625 -2.164062 3.640625 -2.375 C 3.640625 -2.582031 3.632812 -2.800781 3.625 -3.03125 C 3.625 -3.257812 3.617188 -3.519531 3.609375 -3.8125 C 3.597656 -4.175781 3.546875 -4.476562 3.453125 -4.71875 C 3.367188 -4.957031 3.191406 -5.113281 2.921875 -5.1875 L 2.15625 -5.375 C 1.601562 -5.507812 1.238281 -5.753906 1.0625 -6.109375 C 0.894531 -6.472656 0.800781 -6.984375 0.78125 -7.640625 C 0.769531 -7.953125 0.765625 -8.289062 0.765625 -8.65625 C 0.773438 -9.019531 0.785156 -9.378906 0.796875 -9.734375 C 0.804688 -10.398438 0.953125 -10.878906 1.234375 -11.171875 C 1.523438 -11.460938 2.007812 -11.609375 2.6875 -11.609375 C 3.320312 -11.609375 3.78125 -11.460938 4.0625 -11.171875 C 4.34375 -10.878906 4.5 -10.398438 4.53125 -9.734375 C 4.53125 -9.460938 4.53125 -9.128906 4.53125 -8.734375 C 4.53125 -8.347656 4.523438 -7.945312 4.515625 -7.53125 L 3.59375 -7.53125 C 3.601562 -7.914062 3.609375 -8.300781 3.609375 -8.6875 C 3.609375 -9.082031 3.601562 -9.476562 3.59375 -9.875 C 3.570312 -10.488281 3.265625 -10.796875 2.671875 -10.796875 C 2.347656 -10.796875 2.113281 -10.71875 1.96875 -10.5625 C 1.832031 -10.414062 1.753906 -10.1875 1.734375 -9.875 C 1.722656 -9.5 1.71875 -9.125 1.71875 -8.75 C 1.71875 -8.382812 1.722656 -8.015625 1.734375 -7.640625 C 1.742188 -7.210938 1.796875 -6.890625 1.890625 -6.671875 C 1.984375 -6.460938 2.171875 -6.320312 2.453125 -6.25 L 3.171875 -6.078125 C 3.734375 -5.941406 4.101562 -5.691406 4.28125 -5.328125 C 4.457031 -4.960938 4.554688 -4.457031 4.578125 -3.8125 C 4.585938 -3.519531 4.59375 -3.269531 4.59375 -3.0625 C 4.59375 -2.863281 4.585938 -2.664062 4.578125 -2.46875 C 4.578125 -2.28125 4.578125 -2.054688 4.578125 -1.796875 C 4.546875 -1.117188 4.382812 -0.632812 4.09375 -0.34375 C 3.8125 -0.0507812 3.34375 0.09375 2.6875 0.09375 Z M 2.6875 0.09375 "/></g></g></g><g fill="#ffffff" fill-opacity="1"><g transform="translate(209.620165, 251.205951)"><g><path d="M 1.84375 0 L 1.84375 -10.65625 L 0.375 -10.65625 L 0.375 -11.515625 L 4.265625 -11.515625 L 4.265625 -10.65625 L 2.8125 -10.65625 L 2.8125 0 Z M 1.84375 0 "/></g></g></g><g fill="#ffffff" fill-opacity="1"><g transform="translate(225.786764, 251.205951)"><g><path d="M 2.6875 0.09375 C 2.03125 0.09375 1.550781 -0.046875 1.25 -0.328125 C 0.957031 -0.617188 0.8125 -1.097656 0.8125 -1.765625 C 0.78125 -3.140625 0.765625 -4.46875 0.765625 -5.75 C 0.765625 -7.03125 0.78125 -8.363281 0.8125 -9.75 C 0.8125 -10.414062 0.957031 -10.890625 1.25 -11.171875 C 1.550781 -11.460938 2.03125 -11.609375 2.6875 -11.609375 C 3.363281 -11.609375 3.84375 -11.460938 4.125 -11.171875 C 4.414062 -10.890625 4.570312 -10.414062 4.59375 -9.75 C 4.613281 -8.363281 4.625 -7.03125 4.625 -5.75 C 4.625 -4.46875 4.613281 -3.140625 4.59375 -1.765625 C 4.570312 -1.097656 4.414062 -0.617188 4.125 -0.328125 C 3.84375 -0.046875 3.363281 0.09375 2.6875 0.09375 Z M 2.6875 -0.71875 C 3.019531 -0.71875 3.257812 -0.785156 3.40625 -0.921875 C 3.550781 -1.054688 3.625 -1.289062 3.625 -1.625 C 3.675781 -3.03125 3.695312 -4.414062 3.6875 -5.78125 C 3.6875 -7.144531 3.664062 -8.515625 3.625 -9.890625 C 3.625 -10.222656 3.550781 -10.457031 3.40625 -10.59375 C 3.257812 -10.726562 3.019531 -10.796875 2.6875 -10.796875 C 2.363281 -10.796875 2.128906 -10.726562 1.984375 -10.59375 C 1.835938 -10.457031 1.757812 -10.222656 1.75 -9.890625 C 1.71875 -8.515625 1.703125 -7.144531 1.703125 -5.78125 C 1.703125 -4.414062 1.71875 -3.03125 1.75 -1.625 C 1.757812 -1.289062 1.835938 -1.054688 1.984375 -0.921875 C 2.128906 -0.785156 2.363281 -0.71875 2.6875 -0.71875 Z M 2.6875 -0.71875 "/></g></g></g><g fill="#ffffff" fill-opacity="1"><g transform="translate(242.687283, 251.205951)"><g><path d="M 0.765625 0 L 0.765625 -11.515625 L 2.5 -11.515625 C 3.15625 -11.515625 3.628906 -11.367188 3.921875 -11.078125 C 4.222656 -10.796875 4.382812 -10.320312 4.40625 -9.65625 C 4.4375 -9.007812 4.453125 -8.410156 4.453125 -7.859375 C 4.453125 -7.316406 4.4375 -6.785156 4.40625 -6.265625 C 4.375 -5.347656 4.0625 -4.78125 3.46875 -4.5625 L 4.640625 0 L 3.609375 0 L 2.5625 -4.390625 L 1.71875 -4.390625 L 1.71875 0 Z M 1.71875 -5.25 L 2.5 -5.25 C 2.832031 -5.25 3.070312 -5.328125 3.21875 -5.484375 C 3.363281 -5.640625 3.441406 -5.882812 3.453125 -6.21875 C 3.503906 -7.375 3.503906 -8.535156 3.453125 -9.703125 C 3.441406 -10.023438 3.363281 -10.265625 3.21875 -10.421875 C 3.070312 -10.578125 2.832031 -10.65625 2.5 -10.65625 L 1.71875 -10.65625 Z M 1.71875 -5.25 "/></g></g></g><g fill="#ffffff" fill-opacity="1"><g transform="translate(259.213649, 251.205951)"><g><path d="M 0.765625 0 L 0.765625 -11.515625 L 4 -11.515625 L 4 -10.65625 L 1.71875 -10.65625 L 1.71875 -6.21875 L 3.859375 -6.21875 L 3.859375 -5.375 L 1.71875 -5.375 L 1.71875 -0.859375 L 4 -0.859375 L 4 0 Z M 0.765625 0 "/></g></g></g></svg>