<svg xmlns="http://www.w3.org/2000/svg" xmlns:xlink="http://www.w3.org/1999/xlink" zoomAndPan="magnify" preserveAspectRatio="xMidYMid meet" version="1.0" viewBox="91.44 216.27 192.44 14.16"><defs><g/></defs><g fill="#1786f9" fill-opacity="1"><g transform="translate(90.422966, 230.219824)"><g><path d="M 1.015625 -13.671875 L 5.546875 -13.671875 L 8.21875 -5.921875 L 8.28125 -5.921875 L 10.953125 -13.671875 L 15.484375 -13.671875 L 15.484375 0 L 12.5 0 L 12.5 -9.375 L 12.421875 -9.375 L 9.21875 0 L 7.28125 0 L 4.078125 -9.375 L 4 -9.375 L 4 0 L 1.015625 0 Z M 1.015625 -13.671875 "/></g></g></g><g fill="#1786f9" fill-opacity="1"><g transform="translate(106.920275, 230.219824)"><g><path d="M 4.921875 0 L 4.921875 -4.671875 L 0.4375 -13.671875 L 3.59375 -13.671875 L 6.390625 -7.71875 L 6.484375 -7.71875 L 9.28125 -13.671875 L 12.4375 -13.671875 L 7.953125 -4.671875 L 7.953125 0 Z M 4.921875 0 "/></g></g></g><g fill="#1786f9" fill-opacity="1"><g transform="translate(119.669084, 230.219824)"><g/></g></g><g fill="#1786f9" fill-opacity="1"><g transform="translate(124.159471, 230.219824)"><g><path d="M 7.015625 0.171875 C 5.703125 0.171875 4.570312 -0.148438 3.625 -0.796875 C 2.675781 -1.441406 1.957031 -2.300781 1.46875 -3.375 C 0.988281 -4.457031 0.75 -5.628906 0.75 -6.890625 C 0.75 -8.160156 0.988281 -9.332031 1.46875 -10.40625 C 1.957031 -11.476562 2.675781 -12.335938 3.625 -12.984375 C 4.570312 -13.628906 5.703125 -13.953125 7.015625 -13.953125 C 8.617188 -13.953125 9.925781 -13.484375 10.9375 -12.546875 C 11.957031 -11.609375 12.613281 -10.394531 12.90625 -8.90625 L 9.96875 -8.90625 C 9.8125 -9.582031 9.472656 -10.148438 8.953125 -10.609375 C 8.441406 -11.066406 7.804688 -11.296875 7.046875 -11.296875 C 6.003906 -11.296875 5.21875 -10.882812 4.6875 -10.0625 C 4.164062 -9.25 3.90625 -8.191406 3.90625 -6.890625 C 3.90625 -5.566406 4.164062 -4.5 4.6875 -3.6875 C 5.21875 -2.882812 6.003906 -2.484375 7.046875 -2.484375 C 7.796875 -2.484375 8.421875 -2.703125 8.921875 -3.140625 C 9.421875 -3.585938 9.753906 -4.117188 9.921875 -4.734375 L 12.828125 -4.734375 C 12.546875 -3.296875 11.898438 -2.117188 10.890625 -1.203125 C 9.878906 -0.285156 8.585938 0.171875 7.015625 0.171875 Z M 7.015625 0.171875 "/></g></g></g><g fill="#1786f9" fill-opacity="1"><g transform="translate(137.72826, 230.219824)"><g><path d="M 7.046875 0.171875 C 5.679688 0.171875 4.523438 -0.140625 3.578125 -0.765625 C 2.628906 -1.398438 1.914062 -2.25 1.4375 -3.3125 C 0.957031 -4.375 0.71875 -5.550781 0.71875 -6.84375 C 0.71875 -8.125 0.957031 -9.304688 1.4375 -10.390625 C 1.925781 -11.472656 2.644531 -12.335938 3.59375 -12.984375 C 4.539062 -13.628906 5.691406 -13.953125 7.046875 -13.953125 C 8.378906 -13.953125 9.515625 -13.628906 10.453125 -12.984375 C 11.398438 -12.347656 12.109375 -11.484375 12.578125 -10.390625 C 13.054688 -9.304688 13.296875 -8.113281 13.296875 -6.8125 C 13.296875 -5.507812 13.054688 -4.328125 12.578125 -3.265625 C 12.109375 -2.210938 11.398438 -1.375 10.453125 -0.75 C 9.515625 -0.132812 8.378906 0.171875 7.046875 0.171875 Z M 7.03125 -2.546875 C 8 -2.546875 8.742188 -2.953125 9.265625 -3.765625 C 9.796875 -4.585938 10.0625 -5.617188 10.0625 -6.859375 C 10.0625 -8.078125 9.800781 -9.109375 9.28125 -9.953125 C 8.757812 -10.804688 8.007812 -11.234375 7.03125 -11.234375 C 6.363281 -11.234375 5.800781 -11.03125 5.34375 -10.625 C 4.882812 -10.21875 4.539062 -9.679688 4.3125 -9.015625 C 4.082031 -8.359375 3.96875 -7.640625 3.96875 -6.859375 C 3.96875 -5.648438 4.226562 -4.628906 4.75 -3.796875 C 5.28125 -2.960938 6.039062 -2.546875 7.03125 -2.546875 Z M 7.03125 -2.546875 "/></g></g></g><g fill="#1786f9" fill-opacity="1"><g transform="translate(151.824188, 230.219824)"><g><path d="M 1.015625 -13.671875 L 4.546875 -13.671875 L 9.546875 -4.671875 L 9.609375 -4.671875 L 9.609375 -13.671875 L 12.625 -13.671875 L 12.625 0.015625 L 9.046875 0.015625 L 4.078125 -8.65625 L 4.03125 -8.65625 L 4.03125 0.015625 L 1.015625 0.015625 Z M 1.015625 -13.671875 "/></g></g></g><g fill="#1786f9" fill-opacity="1"><g transform="translate(165.451548, 230.219824)"><g><path d="M 10.90625 -11.015625 L 7.3125 -11.015625 L 7.3125 0 L 4.28125 0 L 4.28125 -11.015625 L 0.6875 -11.015625 L 0.6875 -13.671875 L 10.90625 -13.671875 Z M 10.90625 -11.015625 "/></g></g></g><g fill="#1786f9" fill-opacity="1"><g transform="translate(177.048475, 230.219824)"><g><path d="M 8.796875 -3.171875 L 4.421875 -3.171875 L 3.4375 0 L 0.359375 0 L 5.21875 -13.671875 L 8.046875 -13.671875 L 12.875 0 L 9.78125 0 Z M 8.046875 -5.484375 L 6.640625 -9.90625 L 6.53125 -9.90625 L 5.15625 -5.484375 Z M 8.046875 -5.484375 "/></g></g></g><g fill="#1786f9" fill-opacity="1"><g transform="translate(190.187745, 230.219824)"><g><path d="M 7.015625 0.171875 C 5.703125 0.171875 4.570312 -0.148438 3.625 -0.796875 C 2.675781 -1.441406 1.957031 -2.300781 1.46875 -3.375 C 0.988281 -4.457031 0.75 -5.628906 0.75 -6.890625 C 0.75 -8.160156 0.988281 -9.332031 1.46875 -10.40625 C 1.957031 -11.476562 2.675781 -12.335938 3.625 -12.984375 C 4.570312 -13.628906 5.703125 -13.953125 7.015625 -13.953125 C 8.617188 -13.953125 9.925781 -13.484375 10.9375 -12.546875 C 11.957031 -11.609375 12.613281 -10.394531 12.90625 -8.90625 L 9.96875 -8.90625 C 9.8125 -9.582031 9.472656 -10.148438 8.953125 -10.609375 C 8.441406 -11.066406 7.804688 -11.296875 7.046875 -11.296875 C 6.003906 -11.296875 5.21875 -10.882812 4.6875 -10.0625 C 4.164062 -9.25 3.90625 -8.191406 3.90625 -6.890625 C 3.90625 -5.566406 4.164062 -4.5 4.6875 -3.6875 C 5.21875 -2.882812 6.003906 -2.484375 7.046875 -2.484375 C 7.796875 -2.484375 8.421875 -2.703125 8.921875 -3.140625 C 9.421875 -3.585938 9.753906 -4.117188 9.921875 -4.734375 L 12.828125 -4.734375 C 12.546875 -3.296875 11.898438 -2.117188 10.890625 -1.203125 C 9.878906 -0.285156 8.585938 0.171875 7.015625 0.171875 Z M 7.015625 0.171875 "/></g></g></g><g fill="#1786f9" fill-opacity="1"><g transform="translate(203.756535, 230.219824)"><g><path d="M 10.90625 -11.015625 L 7.3125 -11.015625 L 7.3125 0 L 4.28125 0 L 4.28125 -11.015625 L 0.6875 -11.015625 L 0.6875 -13.671875 L 10.90625 -13.671875 Z M 10.90625 -11.015625 "/></g></g></g><g fill="#1786f9" fill-opacity="1"><g transform="translate(215.353462, 230.219824)"><g/></g></g><g fill="#1786f9" fill-opacity="1"><g transform="translate(219.843849, 230.219824)"><g><path d="M 7.015625 0.171875 C 5.703125 0.171875 4.570312 -0.148438 3.625 -0.796875 C 2.675781 -1.441406 1.957031 -2.300781 1.46875 -3.375 C 0.988281 -4.457031 0.75 -5.628906 0.75 -6.890625 C 0.75 -8.160156 0.988281 -9.332031 1.46875 -10.40625 C 1.957031 -11.476562 2.675781 -12.335938 3.625 -12.984375 C 4.570312 -13.628906 5.703125 -13.953125 7.015625 -13.953125 C 8.617188 -13.953125 9.925781 -13.484375 10.9375 -12.546875 C 11.957031 -11.609375 12.613281 -10.394531 12.90625 -8.90625 L 9.96875 -8.90625 C 9.8125 -9.582031 9.472656 -10.148438 8.953125 -10.609375 C 8.441406 -11.066406 7.804688 -11.296875 7.046875 -11.296875 C 6.003906 -11.296875 5.21875 -10.882812 4.6875 -10.0625 C 4.164062 -9.25 3.90625 -8.191406 3.90625 -6.890625 C 3.90625 -5.566406 4.164062 -4.5 4.6875 -3.6875 C 5.21875 -2.882812 6.003906 -2.484375 7.046875 -2.484375 C 7.796875 -2.484375 8.421875 -2.703125 8.921875 -3.140625 C 9.421875 -3.585938 9.753906 -4.117188 9.921875 -4.734375 L 12.828125 -4.734375 C 12.546875 -3.296875 11.898438 -2.117188 10.890625 -1.203125 C 9.878906 -0.285156 8.585938 0.171875 7.015625 0.171875 Z M 7.015625 0.171875 "/></g></g></g><g fill="#1786f9" fill-opacity="1"><g transform="translate(233.412638, 230.219824)"><g><path d="M 9.828125 -2.65625 L 9.828125 0 L 1.015625 0 L 1.015625 -13.671875 L 4.078125 -13.671875 L 4.0625 -2.65625 Z M 9.828125 -2.65625 "/></g></g></g><g fill="#1786f9" fill-opacity="1"><g transform="translate(243.857683, 230.219824)"><g><path d="M 7.046875 0.171875 C 5.679688 0.171875 4.523438 -0.140625 3.578125 -0.765625 C 2.628906 -1.398438 1.914062 -2.25 1.4375 -3.3125 C 0.957031 -4.375 0.71875 -5.550781 0.71875 -6.84375 C 0.71875 -8.125 0.957031 -9.304688 1.4375 -10.390625 C 1.925781 -11.472656 2.644531 -12.335938 3.59375 -12.984375 C 4.539062 -13.628906 5.691406 -13.953125 7.046875 -13.953125 C 8.378906 -13.953125 9.515625 -13.628906 10.453125 -12.984375 C 11.398438 -12.347656 12.109375 -11.484375 12.578125 -10.390625 C 13.054688 -9.304688 13.296875 -8.113281 13.296875 -6.8125 C 13.296875 -5.507812 13.054688 -4.328125 12.578125 -3.265625 C 12.109375 -2.210938 11.398438 -1.375 10.453125 -0.75 C 9.515625 -0.132812 8.378906 0.171875 7.046875 0.171875 Z M 7.03125 -2.546875 C 8 -2.546875 8.742188 -2.953125 9.265625 -3.765625 C 9.796875 -4.585938 10.0625 -5.617188 10.0625 -6.859375 C 10.0625 -8.078125 9.800781 -9.109375 9.28125 -9.953125 C 8.757812 -10.804688 8.007812 -11.234375 7.03125 -11.234375 C 6.363281 -11.234375 5.800781 -11.03125 5.34375 -10.625 C 4.882812 -10.21875 4.539062 -9.679688 4.3125 -9.015625 C 4.082031 -8.359375 3.96875 -7.640625 3.96875 -6.859375 C 3.96875 -5.648438 4.226562 -4.628906 4.75 -3.796875 C 5.28125 -2.960938 6.039062 -2.546875 7.03125 -2.546875 Z M 7.03125 -2.546875 "/></g></g></g><g fill="#1786f9" fill-opacity="1"><g transform="translate(257.95361, 230.219824)"><g><path d="M 6.703125 0.203125 C 5.035156 0.203125 3.671875 -0.285156 2.609375 -1.265625 C 1.546875 -2.253906 1.015625 -3.828125 1.015625 -5.984375 L 1.015625 -13.671875 L 4.046875 -13.671875 L 4.046875 -6.1875 C 4.046875 -3.875 4.929688 -2.71875 6.703125 -2.71875 C 7.648438 -2.71875 8.328125 -3.035156 8.734375 -3.671875 C 9.140625 -4.304688 9.34375 -5.144531 9.34375 -6.1875 L 9.34375 -13.671875 L 12.359375 -13.671875 L 12.359375 -5.984375 C 12.359375 -3.828125 11.828125 -2.253906 10.765625 -1.265625 C 9.710938 -0.285156 8.359375 0.203125 6.703125 0.203125 Z M 6.703125 0.203125 "/></g></g></g><g fill="#1786f9" fill-opacity="1"><g transform="translate(271.327164, 230.219824)"><g><path d="M 1.015625 -13.6875 L 6.40625 -13.6875 C 7.613281 -13.6875 8.679688 -13.414062 9.609375 -12.875 C 10.535156 -12.34375 11.253906 -11.5625 11.765625 -10.53125 C 12.285156 -9.507812 12.546875 -8.289062 12.546875 -6.875 C 12.546875 -5.425781 12.285156 -4.1875 11.765625 -3.15625 C 11.242188 -2.132812 10.515625 -1.351562 9.578125 -0.8125 C 8.648438 -0.28125 7.582031 -0.015625 6.375 -0.015625 L 1.015625 -0.015625 Z M 5.796875 -2.75 C 6.867188 -2.75 7.71875 -3.054688 8.34375 -3.671875 C 8.96875 -4.285156 9.28125 -5.351562 9.28125 -6.875 C 9.28125 -8.394531 8.96875 -9.460938 8.34375 -10.078125 C 7.726562 -10.691406 6.878906 -11 5.796875 -11 L 3.96875 -11 L 3.96875 -2.75 Z M 5.796875 -2.75 "/></g></g></g></svg>